<svg width="64" height="64" viewBox="0 0 64 64" fill="none" xmlns="http://www.w3.org/2000/svg">
<path d="M48.2461 14.5231C47.7538 14.6462 47.2615 15.0154 47.0154 15.5077C45.7846 8.12309 39.5077 2.58462 32 2.46155C24.4923 2.58462 18.2154 8.12309 17.1077 15.5077C16.8615 15.0154 16.3692 14.6462 15.8769 14.5231C14.7692 14.5231 13.7846 16.3692 13.7846 18.5846C13.7846 20.8 14.6461 22.6462 15.8769 22.6462C16.3692 22.5231 16.8615 22.1539 17.1077 21.6615C18.3385 29.0462 24.6154 34.4615 32 34.7077C39.5077 34.5846 45.7846 29.0462 46.8923 21.6615C47.1385 22.1539 47.6308 22.5231 48.1231 22.6462C49.2308 22.6462 50.2154 20.8 50.2154 18.5846C50.2154 16.3692 49.3538 14.5231 48.2461 14.5231Z" stroke="#063065" stroke-width="2" stroke-linecap="round" stroke-linejoin="round"/>
<path d="M31.5077 2.46155C33.3538 3.81539 34.4615 5.9077 34.8308 8.24616V8.61539C34.7077 10.3385 33.2308 11.6923 31.5077 11.5692C29.9077 11.4462 28.6769 10.2154 28.5538 8.61539C28.5538 7.75386 28.9231 7.01539 29.5384 6.52309M28.0615 24.2462C30.6461 25.3539 33.4769 25.3539 36.0615 24.2462" stroke="#063065" stroke-width="2" stroke-linecap="round" stroke-linejoin="round"/>
<path d="M32 25.1077C30.5231 25.1077 29.2923 26.3384 29.2923 27.8154C29.2923 29.2923 30.5231 30.5231 32 30.5231C33.4769 30.5231 34.7077 29.2923 34.7077 27.8154C34.7077 26.3384 33.4769 25.1077 32 25.1077Z" stroke="#063065" stroke-width="2" stroke-linecap="round" stroke-linejoin="round"/>
<path d="M36.5538 17.3538H37.6615" stroke="#063065" stroke-width="2" stroke-linecap="round" stroke-linejoin="round"/>
<path d="M26.3384 17.3538H27.4461" stroke="#063065" stroke-width="2" stroke-linecap="round" stroke-linejoin="round"/>
<path d="M48.2462 29.5385C47.5077 28.5538 48.3692 27.0769 49.4769 26.5846C50.5846 26.2154 51.8154 26.5846 52.6769 27.3231C53.4154 28.1846 54.0308 29.1692 54.4 30.2769C54.7692 31.3846 55.2615 32.3692 55.8769 33.3538C56.4923 34.2154 57.4769 34.9538 58.0923 35.8154C59.4462 37.7846 59.2 40.4923 58.8308 42.9538M50.4615 38.5231C51.2 55.2615 42.2154 61.5385 32 61.5385C21.7846 61.5385 12.4308 53.5385 13.4154 38.5231C13.5385 35.3231 14.4 32.1231 15.8769 29.1692C15.8769 38.0308 23.0154 45.1692 31.8769 45.1692C40.7385 45.1692 47.8769 38.0308 47.8769 29.1692C49.6 32 50.4615 35.2 50.4615 38.5231Z" stroke="#063065" stroke-width="2" stroke-linecap="round" stroke-linejoin="round"/>
<path d="M15.7539 29.5385C16.4923 28.5538 15.6308 27.0769 14.5231 26.5846C13.4154 26.2154 12.1846 26.5846 11.3231 27.3231C10.5846 28.1846 9.96924 29.1692 9.60001 30.2769C9.23078 31.3846 8.73848 32.3692 8.12309 33.3538C7.38463 34.2154 6.52309 34.9538 5.90771 35.8154C4.55386 37.9077 4.80001 40.6154 5.16924 43.0769M36.1846 51.9385C35.9385 51.3231 35.3231 50.9538 34.5846 51.2C34.2154 51.3231 33.8462 51.5692 33.4769 51.8154C33.3539 51.5692 33.1077 51.4461 32.8616 51.3231C32.9846 50.8308 33.1077 50.4615 33.1077 49.9692C33.1077 49.2308 32.6154 48.7385 31.8769 48.7385C31.1385 48.7385 30.6462 49.2308 30.6462 49.9692C30.6462 50.4615 30.7692 50.9538 30.8923 51.3231C30.6462 51.4461 30.5231 51.5692 30.4 51.8154C30.0308 51.5692 29.6616 51.4461 29.2923 51.2C28.6769 50.9538 27.9385 51.2 27.6923 51.8154C27.4462 52.4308 27.6923 53.1692 28.3077 53.4154C28.4308 53.4154 28.4308 53.5385 28.5539 53.5385C29.0462 53.6615 29.6616 53.7846 30.1539 53.7846C30.2769 53.9077 30.2769 54.0308 30.4 54.1538C29.9077 54.5231 29.5385 54.8923 29.1692 55.2615C28.6769 55.7538 28.8 56.4923 29.2923 56.9846C29.7846 57.4769 30.5231 57.3538 31.0154 56.8615C31.0154 56.8615 31.1385 56.7385 31.1385 56.6154C31.5077 56 31.7539 55.3846 31.8769 54.7692H32.1231C32.2462 55.3846 32.4923 55.8769 32.8616 56.3692C33.2308 56.9846 33.9692 57.1077 34.5846 56.8615C35.2 56.4923 35.3231 55.7538 35.0769 55.1385C35.0769 55.0154 34.9539 55.0154 34.9539 54.8923C34.5846 54.4 34.0923 54.0308 33.7231 53.7846C33.7231 53.6615 33.8462 53.6615 33.8462 53.5385C34.3385 53.5385 34.9539 53.5385 35.4462 53.4154C36.0615 53.2923 36.4308 52.6769 36.1846 51.9385Z" stroke="#063065" stroke-width="2" stroke-linecap="round" stroke-linejoin="round"/>
</svg>
