<svg width="65" height="64" viewBox="0 0 65 64" fill="none" xmlns="http://www.w3.org/2000/svg">
<path d="M32.5 46C34.4778 46 36.4112 45.4135 38.0557 44.3147C39.7002 43.2159 40.9819 41.6541 41.7388 39.8268C42.4957 37.9996 42.6937 35.9889 42.3079 34.0491C41.922 32.1093 40.9696 30.3275 39.5711 28.9289C38.1725 27.5304 36.3907 26.578 34.4509 26.1922C32.5111 25.8063 30.5004 26.0043 28.6732 26.7612C26.8459 27.5181 25.2841 28.7998 24.1853 30.4443C23.0865 32.0888 22.5 34.0222 22.5 36C22.5029 38.6513 23.5574 41.1931 25.4321 43.0679C27.3069 44.9426 29.8487 45.9971 32.5 46ZM32.5 28C34.0823 28 35.629 28.4692 36.9446 29.3482C38.2602 30.2273 39.2855 31.4767 39.891 32.9385C40.4965 34.4003 40.655 36.0089 40.3463 37.5607C40.0376 39.1126 39.2757 40.538 38.1569 41.6569C37.038 42.7757 35.6126 43.5376 34.0607 43.8463C32.5089 44.155 30.9003 43.9965 29.4385 43.391C27.9767 42.7855 26.7273 41.7602 25.8482 40.4446C24.9692 39.129 24.5 37.5823 24.5 36C24.5024 33.879 25.346 31.8456 26.8458 30.3458C28.3456 28.846 30.379 28.0024 32.5 28Z" fill="#063065"/>
<path d="M32.5 39C32.2348 39 31.9804 38.8946 31.7929 38.7071C31.6054 38.5196 31.5 38.2652 31.5 38C31.5 37.7348 31.3946 37.4804 31.2071 37.2929C31.0196 37.1054 30.7652 37 30.5 37C30.2348 37 29.9804 37.1054 29.7929 37.2929C29.6054 37.4804 29.5 37.7348 29.5 38C29.5026 38.6183 29.6961 39.2206 30.0541 39.7247C30.4121 40.2288 30.9171 40.6099 31.5 40.816V42C31.5 42.2652 31.6054 42.5196 31.7929 42.7071C31.9804 42.8946 32.2348 43 32.5 43C32.7652 43 33.0196 42.8946 33.2071 42.7071C33.3946 42.5196 33.5 42.2652 33.5 42V40.816C34.1667 40.5812 34.7287 40.118 35.0866 39.5085C35.4445 38.8989 35.5752 38.1824 35.4554 37.4858C35.3356 36.7892 34.9732 36.1575 34.4322 35.7025C33.8913 35.2475 33.2068 34.9987 32.5 35C32.3022 35 32.1089 34.9414 31.9444 34.8315C31.78 34.7216 31.6518 34.5654 31.5761 34.3827C31.5004 34.2 31.4806 33.9989 31.5192 33.8049C31.5578 33.6109 31.653 33.4327 31.7929 33.2929C31.9327 33.153 32.1109 33.0578 32.3049 33.0192C32.4989 32.9806 32.7 33.0004 32.8827 33.0761C33.0654 33.1518 33.2216 33.28 33.3315 33.4444C33.4414 33.6089 33.5 33.8022 33.5 34C33.5 34.2652 33.6054 34.5196 33.7929 34.7071C33.9804 34.8946 34.2348 35 34.5 35C34.7652 35 35.0196 34.8946 35.2071 34.7071C35.3946 34.5196 35.5 34.2652 35.5 34C35.4974 33.3817 35.3039 32.7794 34.9459 32.2753C34.5879 31.7712 34.0829 31.3901 33.5 31.184V30C33.5 29.7348 33.3946 29.4804 33.2071 29.2929C33.0196 29.1054 32.7652 29 32.5 29C32.2348 29 31.9804 29.1054 31.7929 29.2929C31.6054 29.4804 31.5 29.7348 31.5 30V31.184C30.8333 31.4188 30.2713 31.882 29.9134 32.4915C29.5555 33.1011 29.4248 33.8176 29.5446 34.5142C29.6644 35.2108 30.0268 35.8425 30.5678 36.2975C31.1087 36.7525 31.7932 37.0013 32.5 37C32.7652 37 33.0196 37.1054 33.2071 37.2929C33.3946 37.4804 33.5 37.7348 33.5 38C33.5 38.2652 33.3946 38.5196 33.2071 38.7071C33.0196 38.8946 32.7652 39 32.5 39Z" fill="#063065"/>
<path d="M59.718 36H53.238C51.7171 31.0381 48.8428 26.5985 44.938 23.18L39.382 18.318C39.8129 17.9745 40.1398 17.518 40.3263 16.9994C40.5129 16.4809 40.5517 15.9208 40.4384 15.3815C40.3252 14.8422 40.0643 14.345 39.685 13.9453C39.3056 13.5456 38.8227 13.2592 38.29 13.118L43.333 5.554C43.4534 5.37374 43.512 5.15924 43.4999 4.94281C43.4878 4.72638 43.4057 4.51973 43.266 4.354C43.241 4.326 43.209 4.309 43.182 4.283L43.19 4.275C41.6497 2.82381 39.6162 2.01081 37.5 2C35.8303 2.0031 34.201 2.51443 32.829 3.466C29.724 2.108 26.5 0.747 21.9 4.2C21.6954 4.35338 21.5574 4.5793 21.5142 4.83131C21.4711 5.08333 21.5261 5.3423 21.668 5.555L26.711 13.119C26.2302 13.2456 25.789 13.4911 25.4278 13.8327C25.0667 14.1744 24.7972 14.6013 24.644 15.0743C24.4909 15.5473 24.4591 16.0512 24.5515 16.5397C24.644 17.0282 24.8577 17.4856 25.173 17.87L20.44 22.288L21.806 23.749L26.894 19H37.124L43.624 24.685C47.0908 27.7215 49.6856 31.6272 51.141 36H47.282C46.5444 36.0008 45.8373 36.2942 45.3157 36.8157C44.7942 37.3373 44.5008 38.0444 44.5 38.782V41.218C44.5029 41.872 44.7383 42.5036 45.164 43C44.7383 43.4964 44.5029 44.128 44.5 44.782V47.218C44.504 47.5111 44.5547 47.8018 44.65 48.079C44.0401 48.2215 43.4961 48.5655 43.1059 49.0555C42.7157 49.5454 42.5023 50.1527 42.5 50.779V53.215C42.5023 53.8413 42.7157 54.4486 43.1059 54.9385C43.4961 55.4285 44.0401 55.7725 44.65 55.915C44.5547 56.1922 44.504 56.4829 44.5 56.776V59.212C44.5046 59.3293 44.5163 59.4461 44.535 59.562C43.5488 59.8492 42.5272 59.9967 41.5 60H41.374C41.4537 59.7468 41.4961 59.4834 41.5 59.218V56.782C41.4971 56.128 41.2617 55.4964 40.836 55C41.2617 54.5036 41.4971 53.872 41.5 53.218V50.782C41.4992 50.0444 41.2058 49.3373 40.6843 48.8157C40.1627 48.2942 39.4556 48.0008 38.718 48H26.282C25.5444 48.0008 24.8373 48.2942 24.3157 48.8157C23.7942 49.3373 23.5008 50.0444 23.5 50.782V53.218C23.5029 53.872 23.7383 54.5036 24.164 55C23.7383 55.4964 23.5029 56.128 23.5 56.782V59.218C23.5039 59.4834 23.5463 59.7468 23.626 60H23.5C22.4731 59.9986 21.4515 59.8532 20.465 59.568C20.4837 59.4521 20.4954 59.3353 20.5 59.218V56.782C20.496 56.4889 20.4453 56.1982 20.35 55.921C20.9599 55.7785 21.5039 55.4345 21.8941 54.9445C22.2843 54.4546 22.4977 53.8473 22.5 53.221V50.782C22.4977 50.1557 22.2843 49.5484 21.8941 49.0585C21.5039 48.5685 20.9599 48.2245 20.35 48.082C20.4453 47.8048 20.496 47.5141 20.5 47.221V44.782C20.4971 44.128 20.2617 43.4964 19.836 43C20.2617 42.5036 20.4971 41.872 20.5 41.218V38.782C20.4992 38.0444 20.2058 37.3373 19.6843 36.8157C19.1627 36.2942 18.4556 36.0008 17.718 36H13.688C14.9483 31.9416 17.1842 28.254 20.2 25.26L18.8 23.839C15.3999 27.2105 12.921 31.3975 11.6 36H5.282C4.54441 36.0008 3.83726 36.2942 3.31571 36.8157C2.79415 37.3373 2.50079 38.0444 2.5 38.782V41.218C2.5029 41.872 2.73825 42.5036 3.164 43C2.73825 43.4964 2.5029 44.128 2.5 44.782V47.218C2.50226 47.8443 2.71574 48.4516 3.1059 48.9415C3.49605 49.4315 4.04008 49.7755 4.65 49.918C4.55467 50.1952 4.50404 50.4859 4.5 50.779V53.215C4.50404 53.5081 4.55467 53.7988 4.65 54.076C4.03909 54.2187 3.4943 54.5636 3.10404 55.0548C2.71377 55.546 2.50091 56.1546 2.5 56.782V59.218C2.50079 59.9556 2.79415 60.6627 3.31571 61.1843C3.83726 61.7058 4.54441 61.9992 5.282 62H17.718C18.3617 61.9973 18.9841 61.7691 19.477 61.355C20.7756 61.7807 22.1334 61.9984 23.5 62H41.5C42.8666 61.9984 44.2244 61.7807 45.523 61.355C46.0159 61.7691 46.6383 61.9973 47.282 62H59.718C60.4556 61.9992 61.1627 61.7058 61.6843 61.1843C62.2058 60.6627 62.4992 59.9556 62.5 59.218V56.782C62.4977 56.1557 62.2843 55.5484 61.8941 55.0585C61.5039 54.5685 60.9599 54.2245 60.35 54.082C60.4453 53.8048 60.496 53.5141 60.5 53.221V50.782C60.496 50.4889 60.4453 50.1982 60.35 49.921C60.9599 49.7785 61.5039 49.4345 61.8941 48.9445C62.2843 48.4546 62.4977 47.8473 62.5 47.221V44.782C62.4971 44.128 62.2617 43.4964 61.836 43C62.2617 42.5036 62.4971 41.872 62.5 41.218V38.782C62.4992 38.0444 62.2058 37.3373 61.6843 36.8157C61.1627 36.2942 60.4556 36.0008 59.718 36ZM40.344 4.7C38.652 5.13469 36.8677 5.0433 35.229 4.438C35.9514 4.14943 36.7221 4.00079 37.5 4C38.4889 4.01365 39.4617 4.25307 40.344 4.7ZM32.111 5.338C34.36 6.323 36.843 7.413 40.094 6.81L35.965 13H29.035L23.875 5.26C27.149 3.162 29.362 4.13 32.111 5.335V5.338ZM27.5 17C27.2348 17 26.9804 16.8946 26.7929 16.7071C26.6054 16.5196 26.5 16.2652 26.5 16C26.5 15.7348 26.6054 15.4804 26.7929 15.2929C26.9804 15.1054 27.2348 15 27.5 15H37.5C37.7652 15 38.0196 15.1054 38.2071 15.2929C38.3946 15.4804 38.5 15.7348 38.5 16C38.5 16.2652 38.3946 16.5196 38.2071 16.7071C38.0196 16.8946 37.7652 17 37.5 17H27.5ZM20.5 53.218C20.4997 53.4253 20.4173 53.6241 20.2707 53.7707C20.1241 53.9173 19.9253 53.9997 19.718 54H7.282C7.07468 53.9997 6.87593 53.9173 6.72933 53.7707C6.58274 53.6241 6.50026 53.4253 6.5 53.218V50.782C6.50026 50.5747 6.58274 50.3759 6.72933 50.2293C6.87593 50.0827 7.07468 50.0003 7.282 50H8.5V52H10.5V50H12.5V52H14.5V50H16.5V52H18.5V50H19.718C19.9253 50.0003 20.1241 50.0827 20.2707 50.2293C20.4173 50.3759 20.4997 50.5747 20.5 50.782V53.218ZM4.5 38.782C4.50026 38.5747 4.58274 38.3759 4.72933 38.2293C4.87593 38.0827 5.07468 38.0003 5.282 38H6.5V40H8.5V38H10.5V40H12.5V38H14.5V40H16.5V38H17.718C17.9253 38.0003 18.1241 38.0827 18.2707 38.2293C18.4173 38.3759 18.4997 38.5747 18.5 38.782V41.218C18.4997 41.4253 18.4173 41.6241 18.2707 41.7707C18.1241 41.9173 17.9253 41.9997 17.718 42H5.282C5.07468 41.9997 4.87593 41.9173 4.72933 41.7707C4.58274 41.6241 4.50026 41.4253 4.5 41.218V38.782ZM4.5 44.782C4.50026 44.5747 4.58274 44.3759 4.72933 44.2293C4.87593 44.0827 5.07468 44.0003 5.282 44H6.5V46H8.5V44H10.5V46H12.5V44H14.5V46H16.5V44H17.718C17.9253 44.0003 18.1241 44.0827 18.2707 44.2293C18.4173 44.3759 18.4997 44.5747 18.5 44.782V47.218C18.4997 47.4253 18.4173 47.6241 18.2707 47.7707C18.1241 47.9173 17.9253 47.9997 17.718 48H5.282C5.07468 47.9997 4.87593 47.9173 4.72933 47.7707C4.58274 47.6241 4.50026 47.4253 4.5 47.218V44.782ZM18.5 59.218C18.4997 59.4253 18.4173 59.6241 18.2707 59.7707C18.1241 59.9173 17.9253 59.9997 17.718 60H5.282C5.07468 59.9997 4.87593 59.9173 4.72933 59.7707C4.58274 59.6241 4.50026 59.4253 4.5 59.218V56.782C4.50026 56.5747 4.58274 56.3759 4.72933 56.2293C4.87593 56.0827 5.07468 56.0003 5.282 56H6.5V58H8.5V56H10.5V58H12.5V56H14.5V58H16.5V56H17.718C17.9253 56.0003 18.1241 56.0827 18.2707 56.2293C18.4173 56.3759 18.4997 56.5747 18.5 56.782V59.218ZM25.5 50.782C25.5003 50.5747 25.5827 50.3759 25.7293 50.2293C25.8759 50.0827 26.0747 50.0003 26.282 50H27.5V52H29.5V50H31.5V52H33.5V50H35.5V52H37.5V50H38.718C38.9253 50.0003 39.1241 50.0827 39.2707 50.2293C39.4173 50.3759 39.4997 50.5747 39.5 50.782V53.218C39.4997 53.4253 39.4173 53.6241 39.2707 53.7707C39.1241 53.9173 38.9253 53.9997 38.718 54H26.282C26.0747 53.9997 25.8759 53.9173 25.7293 53.7707C25.5827 53.6241 25.5003 53.4253 25.5 53.218V50.782ZM26.282 60C26.0747 59.9997 25.8759 59.9173 25.7293 59.7707C25.5827 59.6241 25.5003 59.4253 25.5 59.218V56.782C25.5003 56.5747 25.5827 56.3759 25.7293 56.2293C25.8759 56.0827 26.0747 56.0003 26.282 56H27.5V58H29.5V56H31.5V58H33.5V56H35.5V58H37.5V56H38.718C38.9253 56.0003 39.1241 56.0827 39.2707 56.2293C39.4173 56.3759 39.4997 56.5747 39.5 56.782V59.218C39.4997 59.4253 39.4173 59.6241 39.2707 59.7707C39.1241 59.9173 38.9253 59.9997 38.718 60H26.282ZM46.5 38.782C46.5003 38.5747 46.5827 38.3759 46.7293 38.2293C46.8759 38.0827 47.0747 38.0003 47.282 38H48.5V40H50.5V38H52.5V40H54.5V38H56.5V40H58.5V38H59.718C59.9253 38.0003 60.1241 38.0827 60.2707 38.2293C60.4173 38.3759 60.4997 38.5747 60.5 38.782V41.218C60.4997 41.4253 60.4173 41.6241 60.2707 41.7707C60.1241 41.9173 59.9253 41.9997 59.718 42H47.282C47.0747 41.9997 46.8759 41.9173 46.7293 41.7707C46.5827 41.6241 46.5003 41.4253 46.5 41.218V38.782ZM44.5 50.782C44.5003 50.5747 44.5827 50.3759 44.7293 50.2293C44.8759 50.0827 45.0747 50.0003 45.282 50H46.5V52H48.5V50H50.5V52H52.5V50H54.5V52H56.5V50H57.718C57.9253 50.0003 58.1241 50.0827 58.2707 50.2293C58.4173 50.3759 58.4997 50.5747 58.5 50.782V53.218C58.4997 53.4253 58.4173 53.6241 58.2707 53.7707C58.1241 53.9173 57.9253 53.9997 57.718 54H45.282C45.0747 53.9997 44.8759 53.9173 44.7293 53.7707C44.5827 53.6241 44.5003 53.4253 44.5 53.218V50.782ZM60.5 59.218C60.4997 59.4253 60.4173 59.6241 60.2707 59.7707C60.1241 59.9173 59.9253 59.9997 59.718 60H47.282C47.0747 59.9997 46.8759 59.9173 46.7293 59.7707C46.5827 59.6241 46.5003 59.4253 46.5 59.218V56.782C46.5003 56.5747 46.5827 56.3759 46.7293 56.2293C46.8759 56.0827 47.0747 56.0003 47.282 56H48.5V58H50.5V56H52.5V58H54.5V56H56.5V58H58.5V56H59.718C59.9253 56.0003 60.1241 56.0827 60.2707 56.2293C60.4173 56.3759 60.4997 56.5747 60.5 56.782V59.218ZM60.5 47.218C60.4997 47.4253 60.4173 47.6241 60.2707 47.7707C60.1241 47.9173 59.9253 47.9997 59.718 48H47.282C47.0747 47.9997 46.8759 47.9173 46.7293 47.7707C46.5827 47.6241 46.5003 47.4253 46.5 47.218V44.782C46.5003 44.5747 46.5827 44.3759 46.7293 44.2293C46.8759 44.0827 47.0747 44.0003 47.282 44H48.5V46H50.5V44H52.5V46H54.5V44H56.5V46H58.5V44H59.718C59.9253 44.0003 60.1241 44.0827 60.2707 44.2293C60.4173 44.3759 60.4997 44.5747 60.5 44.782V47.218Z" fill="#063065"/>
</svg>
