<svg width="64" height="64" viewBox="0 0 64 64" fill="none" xmlns="http://www.w3.org/2000/svg">
<path d="M24.49 20.34C24.56 20.17 24.56 19.99 24.49 19.82C24.42 19.65 24.29 19.52 24.12 19.45C24.03 19.41 23.95 19.4 23.85 19.4C23.57 19.4 23.33 19.56 23.22 19.82C22.98 20.39 22.6 20.98 21.59 20.98C21.2 20.98 20.74 20.89 20.21 20.72C20.14 20.7 20.07 20.69 19.99 20.69C19.69 20.69 19.43 20.88 19.34 21.16C19.22 21.52 19.42 21.91 19.77 22.03C20.42 22.25 21.03 22.36 21.57 22.36C22.94 22.33 23.95 21.65 24.49 20.34ZM15.94 44.41C16.33 44.68 16.8 44.82 17.34 44.82C17.75 44.82 18.21 44.74 18.71 44.58C18.88 44.52 19.03 44.4 19.11 44.24C19.19 44.08 19.21 43.89 19.15 43.72C19.06 43.43 18.8 43.24 18.5 43.24C18.43 43.24 18.36 43.25 18.29 43.27C17.93 43.39 17.61 43.44 17.34 43.44C17.09 43.44 16.88 43.39 16.73 43.28C16.38 43.04 16.35 42.51 16.35 42.51C16.34 42.14 16.05 41.86 15.65 41.85C15.27 41.86 14.97 42.17 14.98 42.55C14.98 42.61 15.02 43.75 15.94 44.41ZM18.04 47.32C17.91 47.15 17.71 47.05 17.49 47.05C17.34 47.05 17.2 47.1 17.08 47.19C16.78 47.42 16.72 47.85 16.95 48.15C16.99 48.21 18.01 49.54 19.41 49.54C19.59 49.54 19.78 49.52 19.96 49.47C20.14 49.43 20.29 49.31 20.38 49.16C20.47 49 20.5 48.82 20.45 48.64C20.37 48.34 20.1 48.12 19.79 48.12C19.73 48.12 19.67 48.13 19.62 48.14C19.55 48.16 19.48 48.16 19.41 48.16C18.81 48.16 18.22 47.55 18.04 47.32Z" fill="#063065"/>
<path d="M61.08 12.3C61.08 7.63 57.28 3.83 52.61 3.83C50.97 3.83 49.4 4.3 48.08 5.16C46.98 4.28 45.74 3.48 44.38 2.79C40.76 0.97 36.4 0 31.79 0C27.73 0 23.6 0.76 19.83 2.2C19.46 2.34 19.16 2.63 19.03 3C18.9 3.37 18.93 3.77 19.12 4.12L19.82 5.41C16.35 7.34 15.2 12.4 15.77 17.08C15.77 17.09 15.77 17.09 15.77 17.1C15.85 17.77 15.96 18.42 16.11 19.06C16.23 19.57 16.15 20.07 15.88 20.47L13.82 23.52C13.55 23.93 13.48 24.42 13.64 24.88C13.88 25.56 14.76 26.82 16.56 27.32C16.73 28.27 16.94 29.19 17.19 30.06C17.19 30.07 17.19 30.08 17.19 30.09C17.19 30.11 17.2 30.12 17.21 30.14C17.51 31.18 17.87 32.14 18.27 32.99C18.18 32.99 18.1 32.98 18.01 32.98C15.31 32.98 12.69 34.14 10.83 36.17C8.87001 38.31 7.90001 41.18 8.09001 44.13C7.50001 44.13 6.94001 44.31 6.42001 44.67C4.69001 45.88 3.58001 49.19 3.13001 54.53C2.84001 57.94 2.89001 61.16 2.93001 62.39C2.95001 63.18 3.59001 63.8 4.38001 63.8L17 63.84C17.06 63.86 17.11 63.86 17.16 63.86H17.19L50.46 64C50.84 64 51.2 63.85 51.49 63.57C51.76 63.3 51.92 62.92 51.92 62.53L51.87 47.67C51.9 42.7 50.21 38.46 47.13 35.73C49.23 31.5 52.01 25.53 53.59 20.71C57.87 20.22 61.08 16.63 61.08 12.3ZM11.86 37.09C13.46 35.34 15.69 34.34 17.99 34.34C18.14 34.34 18.29 34.34 18.44 34.35C19.8 34.42 21.22 34.92 22.55 35.8C25.09 37.47 26.02 40 25.31 43.31C24.82 44.12 24.3 45.07 23.69 46.27C23 46 22.38 45.12 22.19 44.78C22.07 44.56 21.84 44.43 21.59 44.43C21.48 44.43 21.36 44.46 21.26 44.51C20.93 44.69 20.81 45.11 20.99 45.44C21.03 45.51 21.83 46.92 23.08 47.49C22.54 48.63 22 49.82 21.42 51.17C20.58 51.63 19.77 51.86 18.94 51.86C17.9 51.86 16.87 51.49 15.8 50.76C15.87 48.84 14.8 47.06 13.02 46.19L9.51001 44.48C9.21001 41.73 10.05 39.06 11.86 37.09ZM22.76 27.49C22.83 27.32 22.84 27.14 22.78 26.97C22.71 26.8 22.59 26.66 22.42 26.59C22.33 26.55 22.24 26.53 22.14 26.53C21.87 26.53 21.62 26.69 21.51 26.94C21.05 27.96 20.04 28.66 18.35 29.11C18.14 28.32 17.97 27.49 17.83 26.65C17.79 26.36 17.56 26.14 17.28 26.08C15.78 25.8 15.08 24.87 14.92 24.42C14.91 24.38 14.91 24.33 14.94 24.28L17 21.23C17.48 20.51 17.63 19.63 17.42 18.74C17.31 18.26 17.22 17.77 17.15 17.28C17.6 16.87 18.73 16.01 20.28 16.01C20.71 16.01 21.14 16.08 21.57 16.21C21.64 16.23 21.7 16.24 21.77 16.24C22.07 16.24 22.34 16.05 22.43 15.76C22.54 15.4 22.34 15.01 21.98 14.9C21.42 14.72 20.84 14.63 20.28 14.63C18.88 14.63 17.76 15.16 17 15.67C16.81 11.84 17.89 8.05 20.46 6.6L31.5 26.92C31.35 27.26 31.19 27.6 31.03 27.94C30.11 29.95 29.07 32.23 28.08 34.61C26.82 35.02 25.59 35.32 24.41 35.51C24.07 35.2 23.69 34.9 23.28 34.63C22.2 33.92 21.05 33.43 19.91 33.17C19.47 32.38 19.06 31.43 18.72 30.39C20.82 29.84 22.14 28.88 22.76 27.49ZM52.49 14.05C53.04 16.01 53.12 17.54 52.73 18.86C51.33 23.7 48.33 30.19 46.03 34.85C44.17 33.52 41.96 32.68 39.45 32.35C38.85 32.27 38.22 32.23 37.59 32.23C35.39 32.23 33.05 32.71 30.82 33.62C30.49 33.76 30.16 33.88 29.84 34C30.65 32.12 31.47 30.31 32.29 28.52C35.6 21.27 38.46 15.01 38.1 7.48C38.08 7.1 37.8 6.83 37.38 6.83C37 6.85 36.71 7.17 36.73 7.55C37.04 13.87 34.93 19.35 32.22 25.38L21.39 5.43L20.31 3.48C23.94 2.09 27.92 1.36 31.81 1.36C36.2 1.36 40.34 2.28 43.77 4.01C48.27 6.29 51.29 9.76 52.49 14.05ZM30.94 62.54L34.71 54.31C34.74 56.45 34.66 59.03 34.56 62.15L34.55 62.56L30.94 62.54ZM19.74 58.73L19.89 58.36C20.82 56.09 21.7 53.97 22.58 51.92C23.32 50.2 23.97 48.76 24.69 47.31C24.69 47.3 24.7 47.3 24.7 47.29C25.27 46.13 25.81 45.15 26.33 44.28C32.11 44.73 34.04 46.38 34.56 51.37L29.44 62.54L18.2 62.49C18.72 61.22 19.23 59.96 19.74 58.73ZM8.55001 45.52L8.60001 45.54L12.43 47.41C13.81 48.09 14.59 49.48 14.43 50.95C14.39 51.33 14.29 51.69 14.13 52.04C13.54 53.3 12.22 54.12 10.77 54.12L4.60001 53.92C5.03001 49.5 5.94001 46.69 7.24001 45.78C7.54001 45.57 7.86001 45.47 8.19001 45.47C8.30001 45.48 8.42001 45.49 8.55001 45.52ZM42.55 51.84C42.17 51.84 41.86 52.15 41.86 52.53V62.59L35.91 62.57L35.92 62.19C36.36 48.45 36.5 43.93 27.15 42.98C29 40.25 30.78 38.91 32.61 38.91C32.97 38.91 33.34 38.96 33.71 39.06C33.77 39.07 33.83 39.08 33.89 39.08C34.2 39.08 34.47 38.88 34.55 38.57C34.65 38.2 34.43 37.83 34.07 37.74C33.58 37.6 33.08 37.54 32.6 37.54C30.59 37.54 28.72 38.68 26.9 41C26.85 39.38 26.37 37.95 25.49 36.74C26.54 36.52 27.65 36.23 28.8 35.84C29.59 35.58 30.44 35.27 31.33 34.9C33.44 34.04 35.54 33.6 37.59 33.6C38.16 33.6 38.73 33.64 39.28 33.71C41.84 34.05 44.03 34.93 45.81 36.35C45.86 36.38 45.9 36.41 45.93 36.44C45.93 36.44 45.93 36.44 45.94 36.44L45.95 36.45L45.97 36.47L46 36.52H46.02C48.97 38.99 50.53 42.84 50.51 47.67L50.56 62.54H50.76L50.47 62.63L43.26 62.6V52.53C43.24 52.15 42.93 51.84 42.55 51.84Z" fill="#063065"/>
<path d="M47.05 44.48C47.4 43.2 46.96 41.88 45.93 41.18C45.47 40.87 44.96 40.72 44.4 40.72C43.79 40.72 43.15 40.91 42.55 41.28C41.94 40.91 41.3 40.72 40.69 40.72C40.13 40.72 39.62 40.87 39.17 41.18C38.16 41.87 37.71 43.2 38.07 44.51C38.61 46.19 39.96 47.66 42.21 49.01C42.33 49.07 42.44 49.1 42.55 49.1C42.66 49.1 42.77 49.07 42.91 49C45.14 47.65 46.49 46.18 47.05 44.48ZM41.83 10.27C40.94 10.87 40.55 12.04 40.85 13.2C41.32 14.63 42.48 15.88 44.38 17.02C44.48 17.09 44.6 17.12 44.74 17.12C44.83 17.12 44.96 17.1 45.09 17.02C46.99 15.89 48.14 14.64 48.62 13.16C48.92 12.03 48.53 10.87 47.64 10.26C47.24 9.98998 46.78 9.84998 46.3 9.84998C45.79 9.84998 45.25 10.01 44.75 10.31C44.23 10.01 43.69 9.84998 43.18 9.84998C42.68 9.84998 42.23 9.98998 41.83 10.27ZM47.63 19.78C47.23 19.51 46.77 19.37 46.29 19.37C45.78 19.37 45.24 19.53 44.74 19.83C44.23 19.53 43.69 19.37 43.18 19.37C42.69 19.37 42.24 19.51 41.83 19.78C40.94 20.38 40.55 21.55 40.85 22.7C41.32 24.13 42.48 25.39 44.38 26.52C44.49 26.59 44.62 26.63 44.74 26.63C44.85 26.63 44.98 26.59 45.09 26.52C46.99 25.39 48.14 24.14 48.62 22.66C48.92 21.55 48.53 20.39 47.63 19.78Z" fill="#063065"/>
</svg>
