<svg width="1915" height="57" viewBox="0 0 1915 57" fill="none" xmlns="http://www.w3.org/2000/svg">
<g clip-path="url(#clip0_30_43099)">
<path fill-rule="evenodd" clip-rule="evenodd" d="M1511.76 17.9454C1512.09 17.3587 1512.12 17.012 1511.76 17.9454V17.9454ZM1047.09 29.3294C1046.79 29.8907 1046.28 31.3814 1047.63 30.556C1047.35 30.052 1047.19 29.6587 1047.09 29.3294ZM-219.996 24.7627C-220.289 26.3934 -221.569 28.8027 -218.633 26.9094C-219.548 25.9307 -219.927 25.2227 -219.996 24.7627ZM-379.299 114.659V46.7427C-379.299 46.7427 -380.093 30.2 -379.272 29.6334C-378.467 31.0774 -378.559 31.06 -377.053 30.344C-376.991 36.3787 -369.897 26.7894 -371.077 33.0827C-369.047 34.3587 -366.156 35.924 -367.287 32.388C-364.939 32.084 -361.739 35.0987 -363.14 30.2787C-361.137 32.6654 -340.244 39.876 -344.379 33.664C-341.132 29.4827 -340.797 38.592 -337.293 34.2387C-335.44 30.8347 -334.907 36.7974 -333.576 33.3547C-330.811 35.212 -332.523 31.3187 -330.155 30.864C-329.871 40.0094 -323.669 34.0507 -320.313 34.0574C-319.233 38.2347 -318.052 33.8454 -316.529 34.2027C-316.649 40.056 -312.981 40.2694 -315.488 34.6667C-313.045 38.368 -304.035 37.588 -307.735 27.7534C-305.521 31.424 -305.744 28.3574 -302.965 29.612C-306.039 30.912 -305.155 31.4267 -302.495 31.4267C-302 27.492 -301.815 31.0814 -300.587 33.288C-299.784 31.5534 -295.811 32.4854 -297.579 34.628C-294.637 35.3334 -302.907 26.36 -295.099 36.084C-292.053 35.0894 -290.731 29.892 -292.112 26.3507C-290.529 26.232 -287.848 23.7667 -289.184 26.5507C-288.823 43.0414 -288.192 24.3493 -285.007 33.292C-282.18 35.0814 -285.931 29.0934 -286.353 28.1134C-286.588 29.776 -288.413 30.484 -287.744 28.292C-287.775 28.5387 -284.628 27.1814 -284.864 27.16C-279.497 33.9067 -276.864 13.2253 -274.021 15.76C-277.456 18.284 -276.335 20.3 -272.98 18.504C-282.249 24.5214 -272.137 34.1187 -270.471 20.8187C-269.46 21.7454 -266.124 17.688 -268.62 22.3334C-265.58 25.156 -264.993 22.064 -264.64 19.5054C-264.063 21.952 -262.556 19.256 -261.313 19.904C-258.06 18.576 -261.247 18.2054 -259.319 17.6374C-258.015 20.3974 -262.252 21.868 -259.444 23.816C-256.275 19.7387 -260.468 18.0374 -255.753 23.244C-261.876 32.436 -249.3 4.28536 -253.212 29.208C-248.584 27.784 -253.785 22.2107 -250.927 24.3C-248.912 21.8414 -250.193 20.164 -249.103 23.8627C-246.928 19.8387 -246.951 29.96 -244.352 29.2054C-245.965 28.9534 -246.675 24.4454 -244.4 25.912C-245.888 28.1827 -243.419 31.8894 -241.576 30.888C-241.352 32.18 -244.776 33.904 -242.54 35.872C-241.593 32.0654 -235.167 28.7214 -239.32 32.4507C-234.773 35.0307 -235.207 28.6307 -234.275 25.2214C-233.016 25.676 -234.017 27.408 -233.155 28.352C-230.971 23.352 -232.288 46.864 -228.368 36.9307C-231.391 35.66 -231.413 33.796 -231.413 30.7054C-226.417 28.7574 -229.585 35.3947 -221.387 27.84C-225.765 30.7787 -223.849 26.856 -221.427 26.14C-221.408 22.6627 -221.344 18.256 -219.991 24.4774C-219.783 23.4947 -217.327 24.6147 -217.707 27.5667C-216.72 27.544 -217.544 26.5174 -216.591 26.6C-213.489 34.6414 -210.911 29.048 -207.803 27.488C-207.296 25.3787 -210.603 26.932 -208.249 23.3267C-205.669 24.14 -204.652 32.6707 -202.74 27.092C-201.001 13.6027 -202.988 40.1294 -198.455 30.2547C-198.224 25.3307 -196.948 34.4827 -195.337 29.8214C-193.433 38.4174 -189.373 15.964 -191.289 25.7054C-190.716 31.676 -189.516 29.5827 -188.783 24.696C-187.336 33.9267 -183.659 25.372 -183.085 25.876C-177.915 20.1627 -181.177 27.7294 -178.961 29.6507C-179.185 25.9694 -172.028 29.66 -174.125 22.8454C-167.628 21.7294 -173.925 27.3813 -166.971 21.704C-170.971 20.1173 -163.397 17.436 -167.411 28.38C-166.437 26.5427 -165.496 27.6 -164.531 25.7827C-162.544 27.4987 -161.501 21.996 -161.06 26.56C-161.001 25.532 -154.896 14.52 -154.161 19.768C-156.615 20.3094 -157.072 28.9067 -153.819 21.876C-150.445 26.712 -152.325 18.516 -149.084 19.616C-149.564 24.648 -148.943 24 -147.543 21.4627C-148.161 24.8 -136.669 19.6374 -136.932 18.0214C-135.913 18.5267 -133.304 17.82 -136.223 18.936C-135.388 23.8067 -132.563 30.6907 -134.623 21.4787C-131.532 21.2867 -129.481 26.0987 -131.956 20.1947C-134.127 17.4947 -129.895 22.376 -128.708 19.7894C-129.94 24.0414 -128.88 25.3454 -126.655 20.8814C-122.308 26.844 -120.815 18.624 -118.253 17.1654C-119.207 28.0294 -116.697 17.168 -112.044 16.508C-118.827 24.5454 -113.463 24.0374 -109.064 17.5934C-108.216 24.2867 -107.616 17.1094 -106.407 15.3734C-106.267 18.7827 -105.148 24.52 -102.841 20.8467C-100.773 26.4134 -100.875 16.8827 -99.5053 13.5427C-98.9013 15.4574 -98.8413 17.4814 -97.0506 14.9827C-96.8733 18.4387 -95.7946 16.9827 -94.9173 14.8027C-93.5813 18.524 -89.2639 10.0374 -85.5666 13.5107C-80.2586 5.70269 -83.6853 12.4054 -79.7666 8.43602C-79.38 4.46268 -78.6666 8.56669 -79.6826 9.95602C-75.9986 12.168 -75.6386 5.11603 -74.3453 12.224C-72.8373 4.89203 -66.5173 10.992 -64.3693 13.4227C-66.4826 7.39602 -56.396 9.76936 -56.876 14.02C-55.4746 13.7667 -50.5426 12.6654 -53.9653 11.3067C-48.972 13.7547 -35.3866 19.008 -31.2853 12.464C-29.5226 18.4174 -24.2653 12.2694 -20.9546 11.5094C-18.8279 14.7414 -17.9346 16.4867 -15.5066 15.8307C-16.0106 22.808 -8.51062 16.6054 -5.95996 15.1027C-2.57596 20.7067 -1.9306 16.4454 -3.66129 12.4854C3.37073 22.0854 9.43204 26.2067 15.3307 25.748C12.588 27.1494 13.1107 31.1187 16.1094 28.524C15.3267 25.3054 19.0787 24.4307 16.8827 27.7267C21.6214 38.4054 14.752 19.808 22.248 24.2574C22.9587 20.5467 27.0427 21.9974 24.6627 24.744C25.8654 32.8214 53.5214 10.688 46.944 19.664C56.3494 32.4574 38.0294 32.5627 52.608 28.2067C50.8481 24.484 57.4787 28.8294 58.0987 24.6107C61.0507 29.2494 61.7361 28.496 62.7414 27.376C65.0481 27.1547 65.688 22.956 67.3467 25.932C70.4694 24.7627 63.0681 21.0227 68.3574 22.8654C71.8121 17.46 69.0067 25.8 71.7241 23.1254C72.5534 17.0214 74.7547 21.8387 71.7547 26.4467C73.0814 28.6747 74.5814 26.7934 73.3494 25.484C75.2107 25.08 75.604 25.9347 74.6294 27.4334C78.128 28.236 76.3907 24.072 78.2267 23.304C80.2947 27.6347 76.7734 28.232 79.6867 28.4467C78.464 27.0867 79.6307 26.7227 81.044 26.6867C78.9641 24.8267 83.6934 18.576 82.0121 24.416C82.8987 25.876 87.7241 31.6987 84.1374 27.168C85.9414 25.188 84.364 23.9667 85.904 22.028C86.9347 23.1467 90.244 23.7374 87.0067 24.9027C87.6134 33.584 93.972 29.9627 88.7174 26.8214C93.7907 26.7414 94.08 30.8734 96.8961 26.508C91.656 28.2627 95.5694 13.808 98.0107 22.064C99.2347 20.8894 96.032 18.9134 99.8507 20.5787C96.8294 28.3187 111.228 14.016 102.411 25.96C99.264 24.3307 97.7401 29.3734 101.643 29.188C100.048 25.7534 102.633 27.9747 104.077 28.876C102.219 22.1614 108.989 23.108 109.568 28.9707C113.755 26.1667 103.305 22.7614 109.377 21.8214C109.095 20.3867 110.959 21.6894 111.273 22.4214C111.913 22.2814 109.239 19.4627 107.673 19.4294C110.113 15.3667 114.025 24.62 112.76 20.6C119.037 19.4987 116.1 21.084 113.453 23.7413C117.556 23.92 115.047 27.2787 118.312 28.3734C118.064 26.3974 118.62 22.392 121.009 25.46C123.372 21.016 121.521 22.6694 119.476 24.0654C122.073 19.1534 135.147 10.3614 130.376 21.26C125.96 14.6173 128.189 24.8494 131.847 22.3534C128.707 19.4587 137.319 23.0134 135.287 24.2214C135.276 23.4747 142.08 23.5494 139.105 27.924C139.505 27.632 139.959 26.8774 140.489 26.9174C149.28 25.9414 136.22 17.668 140.624 23.4934C139.376 23.7574 138.225 24.3467 138.384 22.8787C134.732 26.2054 138.269 19.3974 138.76 20.8214C141.443 20.4 141.933 19.228 143.8 22.028C145.792 18.204 145.827 13.1334 149.829 18.8067C146.728 20.58 153.111 20.7334 154.328 21.8254C152.209 19.8254 155.492 18.628 158.115 19.7907C157.937 19.4827 159.519 16.0107 160.532 17.3014C162.792 24.6974 171.323 13.4267 167.977 19.7774C174.671 22.6054 163.32 16.64 159.857 24.8347C168.337 25.764 173.259 19.54 176.423 23.5307C173.485 18.8787 177.285 20.084 176.551 16.7267C181.439 17.2094 177.543 19.904 182.967 20.9347C180.161 20.4187 180.583 22.0694 181.396 24.044C185.117 22.908 180.076 27.7227 182.812 27.7587C182.236 29.5014 183.76 30.204 185.559 29.3854C184.093 27.3427 182.732 25.4854 184.695 24.196C188.296 21.4094 178.925 18.56 184.477 17.6334C191.593 22.568 185.064 24.12 195.416 21.5374C189.928 26.2494 200.995 25.0534 194.817 20.4347C206.545 20.052 197.428 26.4974 205.311 19.9613C202.335 19.7413 202.7 11.4134 207.235 17.356C207.079 17.1387 209.061 19.7827 208.332 19.3493C210.333 20.9707 208.868 17.3227 209.324 15.924C210.437 13.856 210.396 17.696 211.513 18.0134C212.761 17.296 215.516 18.464 215.755 17.496C211.071 23.8654 219.072 24.9827 215.427 22.2547C217.96 12.472 220.965 20.692 222.931 13.66C230.317 18.8467 217.672 17.2133 222.62 20.9254C221.063 21.556 217.425 21.4414 219.496 23.5414C223.86 25.908 229.2 18.1894 227.003 12.084C229.691 7.40402 232.131 16.984 228.703 12.3267C227.973 15.356 234.529 17.3214 227.832 18.8534C231.835 22.3534 232.264 9.88002 233.691 15.5173C234.869 19.2227 218.865 28.1013 229.136 24.9254C230.484 33.744 231.061 16.848 233.732 20.812C234.968 19.8347 234.912 20.0974 233.512 18.556C242.539 6.27869 233.389 25.9174 242.464 26.5934C241.075 24.2547 242.561 26.3494 240.677 23.6947C244.499 23.484 236.784 18.2947 241.056 20.224C244.292 20.4227 242.125 24.7867 245.62 23.6454C240.348 20.0254 258.691 14.8587 261.572 15.6747C259.839 18.4694 266.855 16.9587 268.401 19.9414C268.647 17.0267 270.745 19.3614 271.769 18.4867C274.372 22.18 280.231 17.2374 279.897 25.26C281.16 17.4213 287.112 28.9454 287 22.7547C289.875 22.6747 288.303 26.3493 290.989 26.0694C288.92 23.708 293.172 23.7894 291.005 21.256C294.081 25.8347 298.24 21.668 298.525 24.4347C301.276 24.1014 302.808 30.5747 301.579 24.56C299.971 25.764 300.955 24.2094 301.543 23.4374C302.556 25.532 305.063 25.456 306.78 25.2334C302.695 20.144 306.773 28.248 302.129 22.128C302.135 20.0494 310.552 22.1973 306.469 21.8667C324.069 37.78 313.016 23.968 319.364 24.32C318.871 29.324 324.381 24.6974 325.784 28.5974C328.192 25.112 328.957 31.7227 332.68 27.28C335.405 28.4707 336.027 30.4854 337.207 26.592C341.643 29.3814 335.487 28.1307 339.517 30.288C339.323 26.0094 347.064 30.0547 342.773 29.3614C344.133 33.3214 343.644 31.4947 346.843 29.6227C346.219 31.8894 348.727 34.2467 349.523 30.8054C349.327 30.5734 345.195 29.748 347.244 28.548C349.823 31.0347 349.343 22.7027 350.116 30.144C353.907 30.1854 352.584 26.0547 355.291 28.4734C356.485 19.004 357.484 35.5067 360.577 29.0827C358.001 27.1147 360.493 27.0014 361.14 27.2413C358.033 25.0534 361.948 23.188 361.988 29.0667C367.668 19.6934 371.395 33.7614 368.777 36.1214C371.352 39.2867 370.255 38.3067 372.244 35.5614C367.947 35.0187 376.017 31.5867 372.875 38.396C376.601 37.5654 375.783 24.952 379.075 31.8134C378.785 24.36 384.789 26.7907 388.272 29.628C388.263 28.832 390.705 23.064 393.112 24.5494C389.909 25.4854 394.267 29.7454 393.107 26.5467C394.696 26.692 394.624 27.8547 396.373 27.4027C397.539 31.6187 397.667 26.4427 400.733 28.364C399.987 21.6614 403.373 27.084 406.053 28.5014C404.995 29.1934 403.485 33.3787 406.112 32.7694C404.249 23.6467 418.839 26.76 422.759 26.604C425.269 17.716 419.683 47.5387 425.856 29.04C429.611 24.1987 428.609 24.4654 428.043 30.02C431.653 29.472 428.34 29.16 429.785 27.604C431.072 28.14 431.645 28.7427 431.88 29.124C431.804 28.7134 431.761 27.94 431.951 26.6094C432.492 28.24 435.337 29.8494 436.153 31.7174C436.101 26.2014 444.429 31.972 439.164 22.204C440.999 17.0347 443.464 24.1427 441.124 25.032C445.853 22.5734 446.064 30.0267 447.051 21.672C450.189 23.8707 447.068 18.7947 449.935 21.4867C448.304 22.9494 451.708 24.66 449.743 25.9694C452.491 25.4934 449.447 21.2334 453.504 26.468C453.632 23.8054 459.673 24.1307 462.191 26.1534C457.111 14.328 476.081 29.408 475.573 20.0747C477.453 24.8054 483.147 21.7254 484.72 25.212C479 34.0267 494.884 31.2813 489.847 24.2587C495.837 21.072 489.444 29.8294 494.476 29.8654C493.936 27.4014 503.571 24.036 501.521 30.7414C502.175 33.9627 504.772 27.3987 504.043 26.912C507.656 24.08 507.493 29.6667 508.52 30.7174C512.475 24.9467 507.641 35.064 517.46 31.2147C522.757 42.1134 514.732 23.7774 523.124 30.4614C522.164 29.1014 527.645 20.1894 527.449 26.6587C529.62 28.2014 528.025 23.712 530.983 25.5667C530.551 26.2374 530.204 28.744 532.044 27.9347C533.369 27.352 530.408 23.4734 532.64 23.5707C536.053 26.1827 530.596 38.484 536.54 30.864C535.907 30.376 546.353 25.4734 543.833 29.5934C546.319 29.0054 550.957 22.6347 551.223 29.904C551.572 27.552 557.535 24.112 557.56 26.3694C561.859 22.0494 561.94 31.9 565.036 27.8667C564.857 19.7533 570.031 29.0347 570.552 24.4667C580.409 23.7054 567.696 29.5787 581.879 26.6267C579.219 23.636 587.092 29.284 582.508 28.8347C581.584 25.9174 582.545 31.904 585.339 29.2427C585.053 25.5814 585.587 22.2547 590.187 24.6507C592.557 19.0827 604.661 32.516 607.149 24.148C605.984 29.812 615.395 20.948 623.045 24.6934C621.205 28.056 626.968 21.2467 628.985 22.944C628.097 24.4947 628.52 25.832 630.404 28.0534C631.26 26.2614 629.233 27.9014 630.872 25.828C625.099 17.0814 638.548 30.044 637.799 23.744C648.572 29.5254 650.321 21.2214 652.271 25.8294C649.511 26.7934 655.148 29.8027 655.659 28.4613C655.277 30.8454 659.065 35.8427 659.051 32.3974C654.879 30.688 662.163 24.1854 658.491 30.76C659.152 31.148 659.339 31.6947 659.052 32.3947C659.507 31.584 661.2 33.8427 659.871 31.2787C666.698 34.2294 659.375 25.092 667.271 24.6694C666.383 29.8107 666.293 27.7507 671.172 25.0334C670.299 24.2267 667.655 28.848 668.863 25.9334C671.5 27.3574 684.379 21.1067 675.938 24.664C674.672 25.9974 676.187 26.5614 679.319 24.5507C682.035 26.1027 694.135 24.2947 697.911 22.756C697.673 20.932 696.233 22.5907 695.911 21.324C699.728 14.044 699.684 14.4067 700.636 17.6894C713.591 10.344 708.855 19.0654 717.792 16.1827C718.021 8.34402 720.439 17.8934 717.58 19.3C718.527 28.9187 718.353 13.7587 725.407 19.9227C723.913 16.3507 740.279 13.236 749.755 17.0307C747.535 16.032 746.067 12.5427 748.349 10.4814C748.709 12.588 750.116 18.052 751.99 14.9787C752.083 3.81202 755.672 20.1134 757.243 10.3C769.152 2.15202 751.741 18.4854 757.917 21.7534C759.171 16.4734 761.752 16.144 760.673 21.8574C765.003 15.32 764.537 13.6494 761.267 14.3147C760.096 11.5987 767.565 12.8507 765.304 12.1C767.355 8.17202 763.431 8.67735 769.557 11.1C770.977 9.70936 772.163 12.4134 771.767 14.6067C776.753 12.4 783.177 8.95336 779.897 18.668C781.181 17.86 784.565 18.2813 784.659 17.3493C780.363 19.8093 781.919 6.60669 787.628 14.7467C784.553 15.9494 789.103 16.8334 789.571 17.2667C793.315 10.3334 789.363 22.256 791.355 20.5534C791.137 19.6853 795.781 15.376 796.063 16.1747C793.192 18.6467 799.895 15.78 796.577 18.264C800.631 19.624 794.744 9.62003 799.133 12.472C800.217 12.8147 797.857 16.6293 800.244 14.964C803.968 20.8587 802.347 9.14536 799.472 11.58C799.559 8.51736 804.419 5.23736 801.779 10.06C805.672 9.68936 805.779 21.6307 807.607 17.7507C809.607 14.1134 808.693 17.176 809.007 19.6174C812.277 7.44536 813.04 13.5147 812.563 21.0654C813.99 20.1907 815.639 17.9347 816.75 16.2574C805.128 7.31068 823.776 9.37602 828.111 8.99735C823.445 23.896 836.728 9.94669 838.537 10.3574C841.183 13.0147 840.941 9.65202 842.111 8.25202C841.911 15.8414 843.775 7.94002 845.767 7.51069C844.58 13.856 844.073 13.048 847.271 8.79469C846.941 5.25335 853.471 8.23602 851.439 5.13068C854.599 0.912018 863.347 4.25735 856.913 8.45203C855.083 4.28535 858.624 13.06 853.281 10.22C848.299 16.7387 858.315 12.5294 856.805 9.70402C859 7.49468 865.363 11.7973 860.744 7.07335C862.877 6.53202 873.724 8.94135 870.211 6.68135C873.571 5.42136 870.121 14.652 873.264 10.356C873.683 7.44003 874.784 10.504 875.94 11.1774C875.237 6.90802 881.64 10.4414 878.941 11.9294C879.635 12.2507 888.136 15.0547 883.609 17.4374C890.309 19.6827 904.12 -2.79598 903.743 10.8654C910.277 15.8827 899.743 3.95069 917.99 16.4334C915.791 21.3067 922.483 9.10936 926.843 12.6747C921.752 15.44 922.893 19.696 925.653 16.9747C922.792 12.9307 930.58 18.5667 931.915 15.2947C939.328 25.4814 940.705 8.07336 946.465 22.1747C950.516 16.896 949.285 15.7267 953.103 22.176C945.829 20.7854 954.216 26.672 955.771 24.204C958.071 17.4254 957.581 24.7454 961.887 21.0774C961.517 23.9734 956.603 23.4254 960.753 27.0454C960.256 17.84 970.189 32.5747 965.143 22.6694C967.094 20.8467 968.721 18.5987 968.067 22.6494C970.992 23.672 968.923 19.8014 969.097 19.0014C974.127 19.1747 972.252 24.136 975.868 27.6867C977.859 27.0334 982.844 28.4374 980.543 26.304C987.553 26.3667 980.428 23.504 986.669 25.1067C992.22 18.6334 994.753 28.5027 989.677 23.8654C994.82 22.836 990.653 27.8107 996.475 26.8987C997.151 21.72 1010.13 25.556 1012.13 19.3294C1015.61 25.9134 1015.11 22.7987 1017.72 22.9747C1017.21 29.0214 1026.67 29.896 1032.15 29.6174C1030.66 34.256 1035.42 24.7894 1037.51 30.0614C1038.76 28.732 1044.37 21.6693 1042.54 29.184C1039.14 33.556 1046.85 27.096 1047.09 28.4694C1047.36 27.096 1055 32.2227 1051.65 27.8493C1049.57 20.352 1055.85 31.3787 1056.68 32.728C1058.71 30.2427 1060.06 30.4427 1062.51 34.3054C1061.3 31.8 1064.08 31.7587 1065.55 33.5147C1068.14 28.9227 1067.65 32.864 1070.53 32.5587C1071.97 26.7147 1077.59 33.2187 1076.46 25.6427C1080.09 25.5067 1077.23 31.6854 1082.06 24.6614C1084.34 30.856 1095.96 5.20802 1092.18 16.7413C1095.98 14.6467 1097.14 7.25202 1097.71 12.232C1103.54 13.1427 1099.36 8.17068 1104.51 9.19868C1099.29 13.848 1105.3 14.004 1108.85 16.4067C1107.66 14.14 1101.97 3.96669 1107.52 10.4387C1113.69 8.82002 1106.73 11.6174 1113.64 11.636C1111.34 13.7787 1109.37 18.9067 1113.95 15.8014C1109.99 13.1454 1116.15 16.1387 1115.83 14.376C1111.12 9.57735 1116.46 12.3694 1118.32 13.0227C1121.93 9.47336 1119.17 15.0494 1124.8 16.884C1124.99 14.948 1119.79 7.1627 1125.09 7.00136C1125.26 7.78936 1123.19 11.6827 1126.12 10.6494C1125.46 6.59068 1127.1 8.85603 1129.04 10.668C1123.97 20.5774 1133.95 3.17336 1133.43 12.38C1137.58 8.74936 1132.67 9.31602 1132.3 6.40936C1139.21 11.1347 1132.61 0.840027 1139.8 10.484C1142.35 9.96536 1147.24 6.23736 1141.09 7.50935C1141.33 5.43336 1143.41 5.93603 1143.4 3.16803C1146.91 0.658691 1146.64 13.028 1148.72 4.27069C1151.18 5.92935 1150.41 2.84135 1149.88 2.54402C1151.28 2.54002 1152.79 1.96668 1153.37 1.52588e-05C1157.41 7.42935 1157.47 21.116 1162.27 16.6267C1163.61 19.9 1171.39 15.5974 1168.53 19.6427C1172.22 23.4827 1173.52 17.2867 1167.34 14.0067C1177.55 5.65469 1172.54 13.6534 1176.2 21.7654C1181.02 21.4507 1177.56 11.0947 1179.97 11.944C1180.88 8.91202 1181.77 12.0414 1183.82 11.8614C1191.15 5.42002 1184.77 20.772 1190.45 16.2014C1188.75 6.24402 1191.97 15.0414 1197.03 11.812C1200.91 21.4867 1203.97 19.5814 1210.58 21.436C1206.21 19.0507 1214.38 17.5894 1215.24 17.2627C1208.17 9.50669 1219.39 15.6587 1214.79 10.8454C1219.62 9.50669 1217.22 18.8014 1219.44 15.1934C1219.25 14.3147 1221.39 14.16 1220.92 15.688C1224.07 19.984 1220.61 12.0854 1223.98 13.3467C1220.76 15.5294 1230.72 15.86 1233.44 16.408C1228.82 21.1307 1235.19 16.8267 1237.38 19.0374C1235.87 21.864 1245.89 26.0707 1240.9 19.5534C1237.81 20.904 1236.35 18.7934 1238.65 16.4053C1231.19 19.1054 1237.15 8.14535 1242.75 14.464C1240.71 17.5654 1247.25 14.5907 1246.91 18.128C1250.11 22.3787 1249.61 23.192 1248.42 16.844C1249.71 17.2814 1252.85 25.1667 1252.08 17.5854C1253.24 18.9854 1253.01 22.348 1255.65 19.6894C1257.46 19.284 1263.52 21.612 1258.7 20.9534C1260.89 24.5814 1253.52 19.4547 1253.68 22.0747C1260.32 31.008 1254.05 23.596 1262.68 27.0414C1260.1 23.436 1263.96 15.248 1267.45 22.9694C1257.85 26.412 1270.33 22.4747 1268.2 27.3974C1274.52 29.468 1266.05 19.676 1266.08 15.6627C1270.41 16.04 1289.05 8.64935 1277.44 17.5854C1278.55 19.264 1280.2 21.5214 1281.62 22.396C1280.95 16.1587 1282.47 10.0414 1285.18 20.9507C1284.7 18.5 1285.23 16.788 1286.58 20.4174C1288.8 24.1214 1288.03 14.1174 1292.41 14.06C1289.14 9.24536 1295.15 12.5094 1294.71 15.5787C1291.97 13.1454 1290.09 23.5254 1293.94 17.6307C1296.33 19.296 1293.97 16.8147 1295.05 16.4734C1296.91 14.5054 1296.96 17.3387 1296.75 19.3334C1297.97 20.2867 1300.08 15.0334 1298.12 13.508C1298.4 12.7307 1303.01 16.96 1302.83 17.8867C1306.01 17.4893 1300.83 14.3 1303.24 11.012C1303.67 13.7427 1309.79 12.6534 1306.56 10.744C1312.66 6.38003 1314.23 20.032 1308.05 20.228C1314.72 21.4174 1305.55 32.1414 1307.69 24.5294C1303.42 33.0787 1316.68 25.8227 1313.21 20.9854C1310.02 19.592 1315.55 18.504 1315.14 22.0694C1315.76 19.3174 1312.61 18.1014 1312.98 15.8174C1316.74 13.6187 1318.98 14.54 1322.42 15.9387C1322.37 11.9 1325.66 13.944 1329.18 11.7747C1327.86 13.56 1326.72 12.976 1328.88 14.7667C1326.83 15.528 1334.02 12.9187 1332.92 15.648C1330.65 13.8533 1328.34 18.6174 1330.85 17.2187C1330.84 21.7907 1333.11 25.1054 1334.33 18C1334.89 24.932 1339.89 21.1614 1336.69 19.7654C1340.09 17.0134 1327.34 9.33602 1334.68 10.3974C1340.23 24.52 1341.11 4.53869 1342.2 16.312C1343.77 19.3827 1345.68 16.5907 1345.84 14.4814C1348.29 16.7 1346.41 17.6867 1343.92 18.5654C1346.23 20.4507 1349.69 16.248 1350.02 18.512C1346.95 26.2987 1360.21 23.2627 1355.36 26.0014C1358.92 28.5374 1361.41 21.2107 1361.92 27.4053C1363.16 26.5267 1361.67 25.1827 1362.63 24.1787C1364.61 33.0854 1368.86 18.9134 1368.78 23.9227C1375.83 17.76 1375.66 30.2507 1376.61 20.6347C1373.64 19.168 1376.27 13.2894 1376.39 17.512C1380.84 20.88 1380.23 16.3267 1382.55 17.8654C1381.86 10.8827 1392.22 21.58 1394.05 17.9334C1393.71 23.8894 1392.02 21.0587 1394.06 25.9947C1395.51 24.3134 1394.44 15.368 1398.27 22.6574C1397.95 23.924 1396.51 22.2654 1396.27 24.0894C1400.05 25.624 1393.85 28.308 1398.85 29.0667C1397.85 25.2654 1404.86 30.072 1400.13 25.6907C1402.1 25.112 1403.38 28.22 1404.46 30.076C1405.04 26.632 1409.25 25.6974 1411.4 23.36C1409.5 25.9147 1415.16 23.2907 1414.87 23.2174C1418 25.2374 1411.59 29.7547 1415.3 28.0654C1416.09 27.6907 1419.51 24.664 1418.25 23.328C1407.09 19.76 1433.47 22.8067 1423.02 23.6987C1426.53 26.38 1429.05 25.824 1426.91 20.6694C1434.81 21.0974 1427.46 30.2334 1434.31 27.2787C1432.99 29.8427 1434.68 27.584 1435.13 28.3947C1435.67 26.4667 1434.62 25.468 1434.68 23.1293C1435.95 24.0053 1437.86 28.1867 1435.13 28.3987C1433.57 30.6307 1439.76 29.1707 1437.09 26.5827C1439.73 26.5147 1437.65 23.104 1439.4 25.4027C1445.45 16.0894 1439.39 20.0774 1441.91 21.8294C1442.57 21.6133 1444.27 12.036 1443.8 17.1667C1447.88 17.6453 1449.54 18.7227 1456.39 15.7427C1456.63 16.004 1457.32 20.4214 1458.4 16.8214C1462.1 18.132 1458.87 14.856 1462.7 15.7307C1467.94 10.736 1460.82 24.0534 1464.88 18.424C1467.32 15.396 1464.86 16.8533 1465.2 14.944C1467.22 13.2454 1472.98 24.056 1471.14 20.6934C1473.42 18.424 1473.13 22.556 1475.29 20.24C1472.83 14.356 1488.61 27.756 1486.84 19.3787C1489.45 29.2294 1501.51 14.9347 1504 20.6507C1505.16 20.1134 1511.43 17.252 1507.99 20.8774C1498.21 18.4 1521.06 13.6294 1508.85 22.576C1510.09 23.9654 1511.1 18.992 1511.63 18.168C1507.17 18.564 1514.96 12.9827 1512.31 15.9613C1515.39 14.8627 1517.37 18.6027 1520.84 16.1214C1515.48 13.5174 1521.33 13.8467 1523.63 13.8014C1524.1 18.3694 1529.36 9.08669 1529.15 17.1987C1532.24 21.232 1532.33 11.3827 1536.62 15.7027C1536.5 13.8694 1541.03 15.3614 1539.52 17.04C1542.26 16.5587 1542.38 17.416 1542.95 19.7507C1543.02 11.6614 1547.8 18.3267 1550.35 18.9267C1549.19 12.496 1555.31 25.9907 1557.58 22.7854C1558.77 24.6134 1558.85 24.3707 1559.61 27.088C1560.92 24.4053 1561.13 9.37069 1562.14 21.268C1563.98 22.0774 1563.64 19.5707 1563.2 18.9C1566.16 17.0454 1564.57 21.5347 1566.74 19.992C1566.54 13.5227 1572.02 22.4333 1571.06 23.7934C1575.64 20.3534 1577.28 24.4534 1573.4 27.604C1583.67 28.3574 1579.34 14.2454 1582.35 11.356C1583.63 36.1987 1587.07 14.6467 1591.05 24.244C1593.88 31.6414 1590.4 16.428 1597.02 22.8347C1598.37 17.7267 1602.52 31.816 1601.51 18.1974C1602.07 18.3787 1603.98 18.508 1604.34 18.9254C1601.12 25.2013 1611.48 30.7334 1610.86 17.6427C1616.3 19.8067 1619.89 16.868 1620.47 24.5134C1621.64 21.4174 1624.09 24.0467 1626.21 23.9974C1629.75 19.1133 1635.36 18.9014 1631.99 24.8214C1635.09 22.796 1639.64 21.1414 1640.68 23.8C1644.82 18.488 1641.67 24.1974 1644.44 24.636C1642.48 23.3267 1645.88 21.616 1644.25 20.1534C1647.11 17.4614 1644 22.5387 1647.13 20.3387C1646.48 23.6347 1648.63 22.2214 1648.15 25.832C1649.54 22.704 1650.25 22.5014 1653.06 23.6987C1651.4 22.8054 1652.28 15.628 1655.02 20.8707C1650.26 29.7494 1660.49 30.584 1662.23 25.276C1662.26 27.072 1662.04 30.816 1662.58 26.9427C1665.75 26.0867 1663.35 28.008 1666.14 28.6867C1664.54 22.1894 1665.95 23.5747 1668.33 27.7067C1674.47 46.2267 1668.79 16.3387 1671.43 25.2707C1674.66 25.432 1676.5 22.104 1674.09 20.7014C1674.1 19.3627 1677.69 20.9227 1675.65 18.664C1680.22 18.8734 1678.4 21.7067 1676.29 23.1827C1676.94 25.816 1678.45 21.336 1678.39 24.7467C1680.29 24.0734 1680.38 24.3147 1682.61 24.8587C1683.96 24.1347 1690.12 27.16 1688.07 31.436C1690.7 32.0454 1689.19 27.86 1688.13 27.168C1697.97 18.6547 1689.28 31.876 1701.08 25.212C1699.92 28.4147 1704.28 24.148 1701.07 23.2174C1704.31 21.6507 1703.78 26.9 1706.51 27.8627C1706.65 27.2174 1716.59 21.9027 1715.11 30.4814C1718.4 23.6107 1717.59 34.9054 1721.31 35.7294C1718.17 28.916 1726.23 32.3547 1721.95 32.8934C1723.21 35.356 1723.7 36.3014 1725.41 33.456C1722.53 28.6374 1725.95 33.6427 1727.44 32.8774C1726.73 34.3894 1727.07 38.388 1724.95 37.8187C1720.86 42.6867 1732.24 41.864 1726.3 40.408C1729.81 33.132 1730.75 33.4334 1729.34 24.1814C1728.43 18.0694 1731.7 29.2387 1732.2 26.4C1732.05 23.6507 1734.07 15.4414 1732.57 15.2334C1738.48 15.292 1729.39 21.416 1736.69 20.064C1735.29 26.1467 1736.13 20.7227 1732.89 24.6774C1732.99 24.3347 1736.51 24.2027 1733.61 26.4174C1736.6 32.5494 1737.99 16.8187 1738.89 25.808C1741.71 23.344 1740.55 27.7107 1744.07 27.4747C1744.84 20.0334 1744.36 28.3694 1746.94 25.8814C1748.99 27.0814 1744.86 27.9067 1744.67 28.1387C1745.46 31.58 1747.97 29.2227 1747.35 26.9574C1749.2 28.64 1751.4 30.8894 1751.41 26.6947C1747.12 27.3867 1754.87 23.344 1754.67 27.6214C1758.7 25.4654 1752.54 26.7133 1756.98 23.9254C1757.58 25.0907 1758.11 28.0987 1759.06 25.516C1760.58 26.4414 1760.1 24.8067 1761.51 24.6134C1765.24 29.0614 1765.98 26.4427 1768.4 29.9307C1769.8 26.0307 1775.32 18.6574 1774.82 13.6574C1778.98 9.98936 1773.82 21.6934 1780.38 19.8214C1778.67 16.8347 1796.8 2.51735 1790.13 11.4787C1788.87 11.2854 1789.85 10.3187 1788.92 9.69868C1784.48 15.612 1797.8 4.92002 1791.19 10.0894C1793.79 14.5467 1792.82 10.588 1795.66 12.4347C1795.71 9.32402 1799.23 14.016 1802.68 9.92535C1803.39 8.40135 1803.33 10.8347 1802.15 11.588C1803.71 12.54 1804.23 12.2214 1803.2 14.0694C1805.88 14.3534 1804.32 10.6707 1807.19 10.7547C1807.67 16.94 1812.85 5.42402 1814.29 13.26C1814.07 10.4907 1816.84 5.93069 1819.3 8.44402C1817.54 9.79602 1821.41 15.4227 1822.31 14.588C1822.27 14.832 1824.71 14.5547 1824.61 14.2774C1826.78 16.0014 1829 14.5414 1831.35 11.5187C1831.75 13.8547 1834.35 17.1374 1832.61 14.3427C1835.92 13.5254 1836.21 34.8334 1838.2 22.6974C1838.32 23.2 1838.59 27.684 1839.04 28.0614C1841.97 24.1894 1840.65 30.2374 1844.42 28.6947C1843.18 26.1947 1847.2 27.7414 1845.51 29.392C1846.97 30.3707 1842.12 29.3347 1845.1 32.0307C1846.85 28.3254 1849.13 30.2467 1845.02 26.4734C1845.6 19.644 1853.83 22.6973 1848.57 26.312C1852.06 27.456 1849.9 23.0867 1853.13 22.8907C1857.4 20.9614 1849.69 26.1507 1853.51 26.3614C1851.28 29.0174 1853.18 26.92 1851.72 29.2614C1860.17 28.5867 1852.51 12.9427 1860.67 25.2227C1859.27 26.764 1859.22 26.5014 1860.45 27.4787C1863.12 23.5107 1863.7 39.0814 1865.05 30.2574C1874.37 33.9214 1860.11 25.4787 1860.49 22.184C1861.92 16.5467 1862.35 27.688 1866.35 24.1867C1859.66 22.6507 1866.21 20.6947 1865.48 17.66C1862.06 22.3214 1864.5 12.7334 1867.18 17.4187C1865.1 22.0907 1868.86 31.0867 1874.64 28.928C1874.98 28.036 1876.03 26.9093 1871.57 26.26C1876.98 21.5467 1866.22 26.6027 1870.45 21.6134C1866.11 22.7187 1870.37 20.9107 1871.25 18.992C1873.2 25.9934 1876.25 17.844 1878.76 27.588C1875.12 30.332 1883.11 29.1747 1878.43 22.8294C1878.79 23.8027 1881.39 22.624 1882.67 23.3493C1887.06 18.2294 1882.48 31.3854 1886.95 24.0214C1891.49 18.0827 1891.85 26.404 1888.88 26.6254C1892.33 31.7347 1895.24 26.7254 1891.69 26.7627C1893.52 24.2494 1902.43 23.1 1896.95 28.6227C1901.05 28.208 1901.54 28.4854 1898.77 25.54C1902.62 25.3467 1902.99 25.4987 1904.43 28.2707C1904.66 27.3734 1909.12 20.1254 1909.71 21.6334C1915.26 22.5627 1905.89 25.4067 1909.49 28.196C1912.1 29.424 1909.5 30.044 1908.63 32.0534C1910.41 32.7387 1912.08 32.2254 1911.37 30.4254C1914.11 30.3907 1909.07 26.9054 1912.79 28.0427C1914.91 24.048 1910.84 23.424 1917.63 20.7227C1917 24.076 1920.69 22.8934 1917.76 27.532C1918.66 27.4734 1919.23 26.224 1919.62 25.7107C1919.13 24.4347 1929.46 24.6934 1934.33 23.5014C1931.94 20.156 1927.64 22.4507 1924.25 25.6454C1923.78 22.1707 1926.15 16.8534 1928.59 23.3294C1933.73 22.4534 1933.5 13.2827 1936.33 18.2614C1936.85 18.0787 1943.13 18.1267 1939.86 20.492C1941.08 19.3947 1947.45 19.252 1944.36 17.4734C1942.01 18.0547 1946.06 16.3227 1945.76 15.5334C1951.17 13.764 1947.87 18.88 1950.39 20.6947C1952.25 17.892 1952.74 17.7347 1955.43 18.1547C1955.91 16.732 1959.39 23.5254 1955.8 20.212C1954.92 23.464 1952.92 22.0467 1955 19.668C1948.84 20.64 1950.17 26.692 1954.67 25.068C1951.79 21.7174 1958.92 23.9773 1958.9 21.5547C1957 21.24 1961.95 18.4787 1962 18.0907C1961.68 25.184 1970.74 11.508 1963.81 18.592C1959.04 7.69335 1972.11 21.8214 1974.71 26.7307C1973.02 24.9787 1970.53 23.9147 1973.18 28.128C1975.4 25.116 1976.19 29.048 1975.87 31.04C1977.9 30.512 1978.18 29.8574 1976.93 28.1734C1984.71 27.14 1972.31 20.2787 1981.43 21.9307C1980.6 25.952 1983.85 16.7 1986.51 20.7627C1982.35 21.1587 1981.99 25.9827 1984.36 22.0347C1989.73 24.8414 1981.77 26.4027 1984.62 30.3054C1983.04 24.732 1993.56 23.38 1990.11 30.2107C1991.09 28.6187 1995.11 29.5107 1992.54 31.856C1996.45 32.0374 1994.92 26.9974 1991.77 28.6267C1981.9 15.832 1996.55 29.8067 1994.33 23.2454C1998.15 21.58 1994.95 23.556 1996.17 24.7307C1997.05 25.576 1998 21.556 1998.3 21.0947C1997.46 26.1427 2003.56 29.2667 1997.29 29.1734C2000.41 33.5387 2000.2 29.408 2005.47 29.4894C1998.98 33.5667 2009.74 35.1987 2005.97 27.212C2009.37 21.1654 2009.28 29.8414 2008.92 32.536C2015.65 13.1587 2013.28 43.9827 2015.96 28.6374C2017.79 29.4 2016.06 33.5734 2019.56 32.7667C2018.58 31.268 2018.97 30.4134 2020.84 30.8174C2019.6 32.1267 2021.1 34.008 2022.43 31.7814C2023.02 30.94 2018.13 25.908 2021.59 27.78C2018.65 22.9667 2024.01 27.2174 2022.46 28.4587C2025.18 31.1347 2022.38 22.7947 2025.83 28.1987C2031.12 26.3574 2023.72 30.0947 2026.84 31.2654C2028.5 28.2894 2029.14 32.488 2031.44 32.7094C2033.02 32.1934 2034.16 30.3227 2031.58 29.7454C2032.63 27.86 2036.49 16.6587 2037.96 23.5667C2034.78 18.88 2033.14 31.916 2036.09 27.2774C2036.71 31.5 2043.33 25.812 2041.58 29.5414C2045.71 29.5734 2048.96 33.584 2046.54 30.7907C2048.67 29.6414 2040.85 28.1654 2044.35 24.2547C2047.96 22.924 2044.11 19.5774 2047.24 18.3307C2040.6 9.33335 2068.36 32.8307 2069.52 24.744C2067.14 21.9947 2071.23 20.5494 2071.94 24.2574C2079.43 19.804 2072.57 38.412 2077.31 27.728C2075.11 24.428 2078.86 25.308 2078.08 28.5227C2081.08 31.1187 2081.6 27.148 2078.86 25.7494C2080.16 24.592 2082.21 27.0507 2082.97 26.528C2080.79 23.7027 2084.88 26.1294 2084.72 28.1387C2089.21 24.1667 2094.96 25.5774 2097.85 19.152C2096.85 23.9147 2096.24 26.8347 2100.15 21.7707C2107.78 30.8747 2112.09 20.188 2120.61 28.1667C2125.04 29.036 2124.81 25.1134 2126.85 26.9374C2129.36 30.1507 2140.31 28.884 2146.01 25.9347C2144.01 24.0427 2146.83 24.0547 2148.15 24.64C2144.73 25.9987 2149.65 27.0974 2151.07 27.3534C2151.33 23.628 2158.43 22.0107 2159.13 26.8174C2156.17 28.4867 2162.17 25.8854 2163.31 23.8387C2165.43 26.072 2164.73 18.9254 2168.53 26.8907C2169.83 19.7814 2170.18 21.5014 2173.87 19.2894C2172.56 17.9014 2173.87 13.8774 2173.95 17.7694C2177.85 21.7174 2174.47 15.0654 2179.75 22.84C2183.07 19.3987 2188.03 22.4934 2189.1 18.8067C2189.98 20.9867 2191.06 22.4347 2191.24 18.9827C2193.03 21.4854 2193.09 19.452 2193.69 17.5427C2194.94 20.8827 2195.19 23.748 2197.03 18.18C2199.45 21.852 2200.05 20.1187 2200.59 16.7067C2201.8 18.4414 2202.4 22.9547 2203.25 16.26C2214.01 30.42 2203.82 4.86935 2211.16 17.2734C2212.05 21.6574 2213.7 14.0867 2212.44 13.1654C2214.99 14.6227 2216.5 21.512 2220.84 15.548C2221.28 16.0387 2220.88 16.0547 2220.39 16.152C2225.69 20.4454 2222.65 17.6654 2222.67 13.736C2223.92 16.6654 2225.58 14.8907 2226.55 13.6227C2227.75 16.276 2222.77 17.6214 2226.06 19.8587C2225.38 13.34 2226.74 20.5214 2228.81 20.1454C2224.76 29.3614 2231.85 21.136 2230.41 16.2694C2226.88 15.036 2230.97 15.964 2230.75 15.4534C2230.43 13.684 2235.61 21.4027 2233.96 17.556C2236.66 18.4814 2241.87 26.9213 2240.64 20.7973C2242.89 21.2267 2240.79 25.8067 2244.01 24.872C2240.86 24.0947 2246.01 23.3347 2243.27 20.9494C2246.51 19.8454 2244.63 28.048 2248 23.2094C2251.26 30.2427 2250.8 21.6414 2248.35 21.1027C2249.57 15.928 2252.35 23.9027 2254.76 24.796C2253.86 25.7334 2254.41 25.7267 2255.24 26.56C2255.44 25.604 2255.44 29.152 2256.91 30.104C2256.57 32.5934 2260.17 30.784 2261.6 33.7147C2257.58 22.7307 2265.17 25.4654 2261.16 27.0387C2261.27 27.112 2263.73 28.54 2263.48 28.164C2262.76 32.04 2267.71 27.3894 2264.05 27.048C2269.28 23.98 2267.09 34.5707 2272.36 31.1654C2272.16 31.8427 2271.86 32.512 2273.15 33.652C2274.2 32.7867 2273.46 30.0934 2274.14 31.8147C2275.18 27.9187 2271.85 25.66 2277.27 29.8774C2277.85 29.372 2277.09 21.4187 2279.07 23.2227C2277 25.952 2281.52 36.5907 2282.97 27.3627C2283.7 34.7174 2286.43 31.2054 2284.73 26.5614C2284.93 21.1227 2286.89 33.4254 2288.33 30.6507V114.659L-379.299 114.659Z" fill="#EBF9FF"/>
</g>
<defs>
<clipPath id="clip0_30_43099">
<rect width="1920" height="57" fill="white" transform="matrix(-1 0 0 1 1915 0)"/>
</clipPath>
</defs>
</svg>
